<svg width="181" height="64" viewBox="0 0 181 64" fill="none" xmlns="http://www.w3.org/2000/svg"><g opacity=".3" clip-path="url(#prefix__clip0_18293_10162)"><mask id="prefix__a" style="mask-type:alpha" maskUnits="userSpaceOnUse" x="0" y="-27" width="180" height="119"><path fill-rule="evenodd" clip-rule="evenodd" d="M125.147 2.75a17.324 17.324 0 000 24.646c6.863 6.806 17.99 6.806 24.853 0h.002c6.863 6.806 17.99 6.806 24.853 0a17.324 17.324 0 000-24.646h-.001a17.325 17.325 0 00-.001-24.645c-6.863-6.806-17.989-6.806-24.852-.001-6.863-6.805-17.989-6.805-24.852 0a17.325 17.325 0 00-.001 24.645l-.001.001z" fill="#fff"/><path fill-rule="evenodd" clip-rule="evenodd" d="M65.147 2.75a17.325 17.325 0 000 24.646c6.863 6.806 17.99 6.806 24.853 0h.002c6.863 6.806 17.99 6.806 24.853 0a17.324 17.324 0 000-24.646h-.001a17.325 17.325 0 00-.001-24.645c-6.863-6.806-17.989-6.806-24.852-.001-6.863-6.805-17.99-6.805-24.852 0a17.325 17.325 0 000 24.645l-.002.001z" fill="#fff"/><path fill-rule="evenodd" clip-rule="evenodd" d="M5.147 2.75a17.325 17.325 0 000 24.646c6.863 6.806 17.99 6.806 24.853 0h.002c6.863 6.806 17.99 6.806 24.853 0a17.325 17.325 0 000-24.646h-.001a17.325 17.325 0 00-.001-24.645C47.99-28.701 36.864-28.701 30-21.896c-6.863-6.805-17.99-6.805-24.852 0a17.325 17.325 0 000 24.645l-.002.001zM125.147 62.25a17.324 17.324 0 000 24.645c6.863 6.806 17.99 6.806 24.853 0h.002c6.863 6.806 17.99 6.806 24.853 0a17.324 17.324 0 000-24.645l-.001-.002a17.325 17.325 0 00-.001-24.644c-6.863-6.806-17.989-6.806-24.852-.001-6.863-6.805-17.989-6.805-24.852 0a17.325 17.325 0 00-.001 24.645l-.001.002z" fill="#fff"/><path fill-rule="evenodd" clip-rule="evenodd" d="M65.147 62.25a17.325 17.325 0 000 24.645c6.863 6.806 17.99 6.806 24.853 0h.002c6.863 6.806 17.99 6.806 24.853 0a17.324 17.324 0 000-24.645l-.001-.002a17.325 17.325 0 00-.001-24.644c-6.863-6.806-17.989-6.806-24.852-.001-6.863-6.805-17.99-6.805-24.852 0a17.325 17.325 0 000 24.645l-.002.002z" fill="#fff"/><path fill-rule="evenodd" clip-rule="evenodd" d="M5.147 62.25a17.325 17.325 0 000 24.645c6.863 6.806 17.99 6.806 24.853 0h.002c6.863 6.806 17.99 6.806 24.853 0a17.325 17.325 0 000-24.645l-.001-.002a17.325 17.325 0 00-.001-24.644C47.99 30.798 36.864 30.798 30 37.603c-6.863-6.805-17.99-6.805-24.852 0a17.325 17.325 0 000 24.645l-.002.002z" fill="#fff"/></mask><g mask="url(#prefix__a)"><path fill="url(#prefix__paint0_linear_18293_10162)" d="M0-27h180V92H0z"/></g></g><defs><linearGradient id="prefix__paint0_linear_18293_10162" x1="90" y1="-27" x2="90" y2="92" gradientUnits="userSpaceOnUse"><stop stop-color="#fff" stop-opacity="0"/><stop offset="1" stop-color="#fff"/></linearGradient><clipPath id="prefix__clip0_18293_10162"><path fill="#fff" d="M0 0h181v64H0z"/></clipPath></defs></svg>