<svg width="156" height="24" viewBox="0 0 156 24" fill="#10B981" xmlns="http://www.w3.org/2000/svg"><path fill-rule="evenodd" clip-rule="evenodd" d="M4.933 11.965a5 5 0 007.071 7.071 5 5 0 007.072-7.07 5 5 0 00-7.072-7.072 5 5 0 00-7.07 7.071z"/><path d="M152.115 8.907c-.057-.573-.301-1.018-.731-1.336-.431-.317-1.016-.476-1.755-.476-.502 0-.925.071-1.271.214-.346.137-.611.329-.796.575a1.39 1.39 0 00-.269.838c-.01.26.045.488.163.682.123.194.291.362.504.504.213.137.46.258.739.362.279.1.578.185.895.256l1.307.312a9.25 9.25 0 011.747.569c.53.236.989.527 1.378.873.388.346.688.753.902 1.222.217.468.329 1.006.333 1.612-.004.89-.232 1.662-.681 2.315-.446.649-1.089 1.153-1.932 1.513-.838.355-1.849.533-3.033.533-1.174 0-2.197-.18-3.068-.54-.867-.36-1.544-.893-2.031-1.598-.483-.71-.737-1.589-.76-2.635h2.976c.033.488.172.895.419 1.222.251.322.584.565 1.001.731.421.161.897.242 1.428.242.52 0 .973-.076 1.356-.228.388-.151.689-.362.902-.632.213-.27.32-.58.32-.93 0-.327-.097-.601-.292-.824-.189-.223-.468-.412-.838-.568a8.508 8.508 0 00-1.342-.426l-1.584-.398c-1.226-.298-2.194-.765-2.905-1.4-.71-.634-1.063-1.488-1.058-2.563-.005-.88.23-1.65.703-2.308.479-.659 1.134-1.172 1.968-1.542.833-.369 1.78-.554 2.841-.554 1.079 0 2.021.185 2.826.554.81.37 1.44.883 1.889 1.542.45.658.682 1.42.696 2.287h-2.947zM131.099 19.269V4.723h5.739c1.099 0 2.036.197 2.813.59.781.388 1.375.94 1.782 1.655.412.71.618 1.546.618 2.507 0 .966-.208 1.797-.625 2.493-.417.69-1.02 1.221-1.811 1.59-.786.37-1.738.555-2.855.555h-3.842V11.64h3.345c.587 0 1.075-.08 1.463-.242.388-.16.677-.402.866-.724.194-.322.292-.722.292-1.2 0-.483-.098-.89-.292-1.222-.189-.331-.48-.582-.873-.753-.389-.175-.879-.263-1.47-.263h-2.074V19.27h-3.076zm7.856-6.62l3.615 6.62h-3.395l-3.537-6.62h3.317zM118.853 19.269V4.723h9.801V7.26h-6.725v3.466h6.221v2.535h-6.221v3.473h6.754v2.536h-9.83zM105.064 19.269V4.723h3.076v6.414h.191l5.235-6.414h3.686l-5.398 6.513 5.462 8.033h-3.679l-3.985-5.98-1.512 1.846v4.134h-3.076zM91.94 19.269V4.723h5.738c1.098 0 2.036.197 2.812.59.782.388 1.376.94 1.783 1.655.412.71.618 1.546.618 2.507 0 .966-.208 1.797-.625 2.493-.417.69-1.02 1.221-1.811 1.59-.786.37-1.738.555-2.855.555h-3.843V11.64h3.346c.587 0 1.074-.08 1.463-.242.388-.16.677-.402.866-.724.194-.322.291-.722.291-1.2 0-.483-.097-.89-.29-1.222-.19-.331-.481-.582-.874-.753-.389-.175-.879-.263-1.47-.263h-2.074V19.27h-3.076zm7.854-6.62l3.615 6.62h-3.394l-3.537-6.62h3.316zM89.661 11.996c0 1.586-.3 2.936-.902 4.048-.596 1.113-1.41 1.963-2.443 2.55-1.027.582-2.183.874-3.466.874-1.292 0-2.453-.294-3.48-.881-1.027-.587-1.84-1.437-2.436-2.55-.597-1.112-.895-2.46-.895-4.041 0-1.586.298-2.936.895-4.048.597-1.113 1.409-1.96 2.436-2.543 1.027-.587 2.188-.88 3.48-.88 1.283 0 2.439.293 3.466.88 1.032.582 1.847 1.43 2.443 2.543.602 1.112.902 2.462.902 4.048zm-3.118 0c0-1.027-.154-1.894-.461-2.6-.303-.705-.732-1.24-1.286-1.605-.554-.364-1.203-.546-1.946-.546-.743 0-1.392.182-1.946.546-.554.365-.985.9-1.292 1.606-.303.705-.455 1.572-.455 2.599 0 1.027.151 1.894.455 2.6.307.705.738 1.24 1.292 1.605.554.364 1.203.546 1.946.546.744 0 1.392-.182 1.946-.546.554-.365.983-.9 1.286-1.606.307-.705.461-1.572.461-2.599zM59.666 19.269L55.505 4.723h3.359l2.408 10.107h.12L64.05 4.723h2.876l2.65 10.128h.127L72.11 4.723h3.36L71.306 19.27H68.31l-2.77-9.51h-.114l-2.762 9.51h-2.998zM54.661 11.996c0 1.586-.3 2.936-.902 4.048-.596 1.113-1.41 1.963-2.443 2.55-1.027.582-2.183.874-3.466.874-1.293 0-2.453-.294-3.48-.881-1.027-.587-1.84-1.437-2.436-2.55-.597-1.112-.895-2.46-.895-4.041 0-1.586.298-2.936.895-4.048.597-1.113 1.409-1.96 2.436-2.543 1.028-.587 2.188-.88 3.48-.88 1.283 0 2.439.293 3.466.88 1.032.582 1.847 1.43 2.443 2.543.602 1.112.902 2.462.902 4.048zm-3.118 0c0-1.027-.154-1.894-.461-2.6-.303-.705-.732-1.24-1.286-1.605-.554-.364-1.203-.546-1.946-.546-.743 0-1.392.182-1.946.546-.554.365-.985.9-1.293 1.606-.302.705-.454 1.572-.454 2.599 0 1.027.152 1.894.455 2.6.307.705.738 1.24 1.292 1.605.554.364 1.203.546 1.946.546.743 0 1.392-.182 1.946-.546.554-.365.983-.9 1.286-1.606.307-.705.461-1.572.461-2.599zM39.09 9.816h-3.111a3.042 3.042 0 00-.348-1.073 2.728 2.728 0 00-.675-.81 2.97 2.97 0 00-.952-.51 3.64 3.64 0 00-1.157-.178c-.753 0-1.409.187-1.968.56-.559.37-.992.91-1.3 1.62-.307.705-.461 1.563-.461 2.571 0 1.037.154 1.908.462 2.614.312.705.748 1.238 1.306 1.598.56.36 1.205.54 1.94.54.411 0 .792-.055 1.143-.164.355-.109.67-.267.944-.476.275-.213.502-.47.682-.774.185-.303.313-.649.384-1.037l3.11.014a5.805 5.805 0 01-1.89 3.587 6.054 6.054 0 01-1.916 1.15c-.739.28-1.575.42-2.507.42-1.298 0-2.458-.294-3.48-.881-1.018-.587-1.823-1.437-2.415-2.55-.587-1.112-.881-2.46-.881-4.041 0-1.586.298-2.936.895-4.048.596-1.113 1.406-1.96 2.429-2.543 1.023-.587 2.173-.88 3.452-.88a7.46 7.46 0 012.343.355 5.943 5.943 0 011.925 1.036 5.335 5.335 0 011.364 1.655c.355.654.582 1.402.681 2.245z"/></svg>