<svg width="32" height="19" viewBox="0 0 32 19" fill="none" xmlns="http://www.w3.org/2000/svg">
<path d="M13.3307 13.8538V12.5344C13.3307 11.8345 13.0498 11.1633 12.5497 10.6684C12.0496 10.1735 11.3713 9.89551 10.6641 9.89551H5.33073C4.62349 9.89551 3.94521 10.1735 3.44511 10.6684C2.94501 11.1633 2.66406 11.8345 2.66406 12.5344V13.8538" stroke="#CBD5E1" stroke-width="1.5" stroke-linecap="round" stroke-linejoin="round"/>
<path d="M8.0026 7.25727C9.47536 7.25727 10.6693 6.0758 10.6693 4.61838C10.6693 3.16096 9.47536 1.97949 8.0026 1.97949C6.52984 1.97949 5.33594 3.16096 5.33594 4.61838C5.33594 6.0758 6.52984 7.25727 8.0026 7.25727Z" stroke="#CBD5E1" stroke-width="1.5" stroke-linecap="round" stroke-linejoin="round"/>
<ellipse cx="8.5" cy="4.45345" rx="2.5" ry="2.47396" fill="#CBD5E1"/>
<path d="M4 9.89551H12L13.5 14.596H2.5L4 9.89551Z" fill="#CBD5E1"/>
<path d="M29.3307 13.8538V12.5344C29.3307 11.8345 29.0498 11.1633 28.5497 10.6684C28.0496 10.1735 27.3713 9.89551 26.6641 9.89551H21.3307C20.6235 9.89551 19.9452 10.1735 19.4451 10.6684C18.945 11.1633 18.6641 11.8345 18.6641 12.5344V13.8538" stroke="#64748B" stroke-width="1.5" stroke-linecap="round" stroke-linejoin="round"/>
<path d="M24.0026 7.25727C25.4754 7.25727 26.6693 6.0758 26.6693 4.61838C26.6693 3.16096 25.4754 1.97949 24.0026 1.97949C22.5298 1.97949 21.3359 3.16096 21.3359 4.61838C21.3359 6.0758 22.5298 7.25727 24.0026 7.25727Z" stroke="#64748B" stroke-width="1.5" stroke-linecap="round" stroke-linejoin="round"/>
<ellipse cx="24.5" cy="4.45345" rx="2.5" ry="2.47396" fill="#64748B"/>
<path d="M20 9.89551H28L29.5 14.596H18.5L20 9.89551Z" fill="#64748B"/>
<path d="M21.3307 16.8538V15.5344C21.3307 14.8345 21.0498 14.1633 20.5497 13.6684C20.0496 13.1735 19.3713 12.8955 18.6641 12.8955H13.3307C12.6235 12.8955 11.9452 13.1735 11.4451 13.6684C10.945 14.1633 10.6641 14.8345 10.6641 15.5344V16.8538" stroke="#F8FAFC" stroke-width="1.5" stroke-linecap="round" stroke-linejoin="round"/>
<path d="M16.0026 10.2573C17.4754 10.2573 18.6693 9.0758 18.6693 7.61838C18.6693 6.16096 17.4754 4.97949 16.0026 4.97949C14.5298 4.97949 13.3359 6.16096 13.3359 7.61838C13.3359 9.0758 14.5298 10.2573 16.0026 10.2573Z" stroke="#F8FAFC" stroke-width="1.5" stroke-linecap="round" stroke-linejoin="round"/>
<ellipse cx="16.5" cy="7.45345" rx="2.5" ry="2.47396" fill="#F8FAFC"/>
<path d="M12 12.8955H20L21.5 17.596H10.5L12 12.8955Z" fill="#F8FAFC"/>
</svg>
