<svg width="40" height="41" viewBox="0 0 40 41" fill="none" xmlns="http://www.w3.org/2000/svg"><g clip-path="url(#prefix__clip0_4903_168544)"><path d="M19 9a1.5 1.5 0 013 0v25.5h-3V9z" fill="#B7876C"/><path d="M19 23v-4h4l-4 4z" fill="#8B6149"/><rect x="3" y="10.5" width="34" height="11" rx="2" fill="#fff"/><path d="M12.315 18.5h-1.868v-5.303h1.89c1.596 0 2.574.993 2.57 2.644.004 1.66-.974 2.659-2.592 2.659zm-.77-.945h.726c1.01 0 1.538-.523 1.538-1.714 0-1.179-.528-1.699-1.531-1.699h-.733v3.413zm9.016-1.706c0 1.732-1.073 2.724-2.475 2.724-1.414 0-2.483-1-2.483-2.724 0-1.732 1.07-2.725 2.483-2.725 1.402 0 2.476.992 2.476 2.725zm-3.837 0c0 1.131.538 1.747 1.362 1.75.817-.003 1.359-.619 1.355-1.75.004-1.136-.538-1.747-1.355-1.75-.824.003-1.362.614-1.362 1.75zm9.052-2.652V18.5h-.952l-2.329-3.37h-.044v3.37h-1.099v-5.303h.967l2.315 3.37h.051v-3.37h1.091zm.894 5.303v-5.303h3.56v.909h-2.461v1.289h2.277v.908H27.77v1.289h2.468v.908H26.67z" fill="#48AC3F"/><ellipse cx="20.5" cy="40.5" rx="16.5" ry="7" fill="#7C553E"/></g><defs><clipPath id="prefix__clip0_4903_168544"><path fill="#fff" transform="translate(0 .5)" d="M0 0h40v40H0z"/></clipPath></defs></svg>