<svg width="26" height="26" viewBox="0 0 26 26" fill="none" xmlns="http://www.w3.org/2000/svg">
<path d="M4.15153 16.6682C5.06459 21.5637 9.77337 24.7921 14.6689 23.8791C19.5644 22.966 22.7929 18.2572 21.8798 13.3617C20.9667 8.46617 16.258 5.23774 11.3624 6.1508C6.4669 7.06385 3.23847 11.7726 4.15153 16.6682Z" fill="#64748B"/>
<circle cx="2.25425" cy="2.25425" r="2.25425" transform="matrix(-0.983048 0.183347 0.183347 0.983048 5.96875 13.4326)" fill="#64748B"/>
<ellipse cx="2.25425" cy="2.25425" rx="2.25425" ry="2.25425" transform="matrix(-0.983048 0.183347 0.183347 0.983048 23.7344 13.4321)" fill="#64748B"/>
<path fill-rule="evenodd" clip-rule="evenodd" d="M3.97999 12.7476C5.3263 13.6743 7.0269 14.0597 8.73103 13.677C10.4597 13.2888 11.8472 12.1878 12.6637 10.7443C13.9678 13.0425 16.6283 14.3271 19.2974 13.7278C20.2573 13.5122 21.112 13.0769 21.8221 12.4852C21.7955 12.3312 21.7649 12.177 21.7302 12.0227C20.6193 7.07546 15.7798 3.94944 10.9208 5.04052C7.1338 5.89091 4.45266 9.05202 3.97999 12.7476Z" fill="#1E293B"/>
<path fill-rule="evenodd" clip-rule="evenodd" d="M19.4983 7.70503L6.35545 7.58065C6.66706 5.03891 9.51829 3.0681 12.9699 3.10076C16.4215 3.13343 19.2349 5.15785 19.4983 7.70503Z" fill="#475569"/>
<rect x="4.16406" y="7.56104" width="17.525" height="2.19062" rx="0.730207" transform="rotate(0.542194 4.16406 7.56104)" fill="#475569"/>
<path d="M10.7605 4.70468C10.772 3.49489 11.762 2.52344 12.9718 2.53489C14.1816 2.54634 15.153 3.53635 15.1416 4.74614L15.1139 7.66684L10.7329 7.62538L10.7605 4.70468Z" fill="#334155"/>
</svg>
