<svg width="40" height="40" viewBox="0 0 40 40" fill="none" xmlns="http://www.w3.org/2000/svg"><path d="M7.675 24.35c1.311 7.03 8.073 11.666 15.102 10.355 7.03-1.311 11.666-8.073 10.355-15.103-1.311-7.03-8.073-11.665-15.102-10.354C11 10.559 6.363 17.321 7.674 24.35z" fill="#F5C2D0"/><ellipse cx="1.212" cy="1.164" rx="1.212" ry="1.164" transform="matrix(0 -1 -1 0 17.398 24.446)" fill="#334155"/><ellipse cx="1.22" cy="1.165" rx="1.22" ry="1.165" transform="matrix(0 1 1 0 23.063 21.941)" fill="#334155"/><circle cx="3.237" cy="3.237" r="3.237" transform="scale(-1 1) rotate(10.565 -111.694 -45.791)" fill="#F5C2D0"/><circle cx="3.237" cy="3.237" r="3.237" transform="scale(-1 1) rotate(10.565 -124.452 -183.777)" fill="#F5C2D0"/><path fill-rule="evenodd" clip-rule="evenodd" d="M7.438 18.71a8.65 8.65 0 006.822 1.335c2.484-.558 4.478-2.14 5.65-4.216 1.872 3.3 5.693 5.145 9.526 4.285a8.582 8.582 0 003.624-1.784 13.655 13.655 0 00-.133-.667C31.332 10.559 24.383 6.07 17.406 7.637c-5.44 1.222-9.291 5.764-9.968 11.074z" fill="#1E293B"/><path fill-rule="evenodd" clip-rule="evenodd" d="M29.717 11.466l-18.872-.178c.446-3.65 4.54-6.481 9.498-6.434 4.956.047 8.997 2.954 9.374 6.612z" fill="#FACC15"/><rect x="7.695" y="11.258" width="25.165" height="3.146" rx="1.049" transform="rotate(.542 7.695 11.258)" fill="#FACC15"/><path d="M17.173 7.155a3.146 3.146 0 116.291.06l-.04 4.193-6.29-.06.04-4.193z" fill="#EAB308"/></svg>